<svg width="49" height="50" viewBox="0 0 49 50" fill="none" xmlns="http://www.w3.org/2000/svg">
<g clip-path="url(#clip0_1017_761)">
<path d="M24.8115 47.941C37.4814 47.941 47.7524 37.67 47.7524 25.0001C47.7524 12.3301 37.4814 2.05914 24.8115 2.05914C12.1416 2.05914 1.87061 12.3301 1.87061 25.0001C1.87061 37.67 12.1416 47.941 24.8115 47.941Z" stroke="#242D37" stroke-width="2.16189" stroke-miterlimit="10"/>
<path d="M31.9642 16.1147V19.7899C31.9649 19.9465 31.9347 20.1017 31.8752 20.2466C31.8158 20.3914 31.7283 20.5232 31.6179 20.6341C31.5074 20.7451 31.3761 20.8332 31.2314 20.8933C31.0868 20.9534 30.9318 20.9843 30.7752 20.9843H28.3971C28.24 20.985 28.0844 20.9546 27.9391 20.8949C27.7939 20.8351 27.6619 20.7471 27.5509 20.6361C27.4398 20.525 27.3519 20.3931 27.2921 20.2478C27.2323 20.1026 27.2019 19.9469 27.2026 19.7899V16.1147C27.2026 15.7993 27.0774 15.4969 26.8544 15.2739C26.6314 15.0509 26.329 14.9256 26.0136 14.9256H23.6355C23.4789 14.9249 23.3237 14.9551 23.1788 15.0146C23.0339 15.074 22.9022 15.1615 22.7912 15.272C22.6803 15.3824 22.5922 15.5138 22.5321 15.6584C22.472 15.803 22.4411 15.9581 22.4411 16.1147V19.7899C22.4418 19.9465 22.4116 20.1017 22.3521 20.2466C22.2927 20.3914 22.2052 20.5232 22.0947 20.6341C21.9842 20.7451 21.8529 20.8332 21.7083 20.8933C21.5637 20.9534 21.4086 20.9843 21.252 20.9843H18.874C18.7169 20.985 18.5612 20.9546 18.416 20.8949C18.2708 20.8351 18.1388 20.7471 18.0278 20.6361C17.9167 20.525 17.8287 20.3931 17.769 20.2478C17.7092 20.1026 17.6788 19.9469 17.6795 19.7899V16.1147C17.6795 15.7993 17.5542 15.4969 17.3312 15.2739C17.1083 15.0509 16.8058 14.9256 16.4905 14.9256H14.1124C13.797 14.9256 13.4946 15.0509 13.2716 15.2739C13.0486 15.4969 12.9233 15.7993 12.9233 16.1147V43.5501C14.422 44.4749 16.0227 45.2229 17.6936 45.7791V39.649C17.6934 38.7094 17.8784 37.7789 18.2379 36.9108C18.5974 36.0427 19.1244 35.2539 19.7888 34.5895C20.4532 33.9251 21.242 33.3981 22.1102 33.0386C22.9783 32.6791 23.9087 32.4941 24.8483 32.4942C26.7392 32.5042 28.5493 33.2625 29.8827 34.6032C31.2161 35.9439 31.9645 37.7581 31.9642 39.649V45.7791C33.635 45.2229 35.2358 44.4749 36.7344 43.5501V16.1147C36.7344 15.7993 36.6091 15.4969 36.3862 15.2739C36.1632 15.0509 35.8607 14.9256 35.5454 14.9256H33.1673C33.01 14.9238 32.8538 14.9531 32.708 15.0121C32.5621 15.071 32.4293 15.1583 32.3174 15.2689C32.2055 15.3795 32.1167 15.5112 32.056 15.6564C31.9954 15.8015 31.9642 15.9573 31.9642 16.1147Z" fill="#242D37"/>
</g>
<defs>
<clipPath id="clip0_1017_761">
<rect width="48.0437" height="48.0437" fill="white" transform="translate(0.789551 0.978149)"/>
</clipPath>
</defs>
</svg>
